<svg xmlns="http://www.w3.org/2000/svg" version="1.1" xmlns:xlink="http://www.w3.org/1999/xlink" xmlns:svgjs="http://svgjs.dev/svgjs" width="1500" height="1500" viewBox="0 0 1500 1500"><rect width="1500" height="1500" fill="#000000"></rect><g transform="matrix(0.16162922256343948,0,0,0.16162922256343948,629.0360692748177,249.4589799828218)"><svg viewBox="0 0 64 264" data-background-color="#60777f" preserveAspectRatio="xMidYMid meet" height="6187" width="1500" xmlns="http://www.w3.org/2000/svg" xmlns:xlink="http://www.w3.org/1999/xlink"><g id="tight-bounds" transform="matrix(1,0,0,1,-0.06810285240732128,16.657170715464986)"><svg viewBox="0 0 64.13620570481466 247.2" height="247.2" width="64.13620570481466"><g><svg viewBox="0 0 98.45863636363636 379.48884942009903" height="247.2" width="64.13620570481466"><g transform="matrix(1,0,0,1,0,132.28884942009904)"><svg viewBox="0 0 98.45863636363636 247.2" height="247.2" width="98.45863636363636"><g id="textblocktransform"><svg viewBox="0 0 98.45863636363636 247.2" height="247.2" width="98.45863636363636" id="textblock"><g><svg viewBox="0 0 98.45863636363636 247.2" height="247.2" width="98.45863636363636"><g transform="matrix(1,0,0,1,0,0)"><svg width="98.45863636363636" viewBox="3.52 -42.97 17.11 42.97" height="247.2" data-palette-color="#ffffff"><path d="M8.57 0L3.52 0 3.52-42.97 12.52-42.97Q15.94-42.97 17.58-41.76 19.21-40.55 19.71-38.12 20.21-35.69 20.21-32.01L20.21-32.01Q20.21-28.03 19.41-25.68 18.6-23.34 16.28-22.66L16.28-22.66Q17.46-22.46 18.23-21.66 18.99-20.85 19.43-19.14 19.87-17.43 20.06-14.56 20.24-11.69 20.24-7.35L20.24-7.35Q20.24-6.93 20.24-6.15 20.24-5.37 20.26-4.44 20.29-3.52 20.32-2.61 20.36-1.71 20.43-1.01 20.51-0.32 20.63 0L20.63 0 15.6 0Q15.5-0.22 15.43-0.98 15.36-1.73 15.31-2.98 15.26-4.22 15.23-5.94 15.21-7.67 15.21-9.8 15.21-11.94 15.21-14.48L15.21-14.48Q15.21-16.92 15-18.2 14.79-19.48 14.03-19.98 13.26-20.48 11.57-20.58L11.57-20.58 8.57-20.75 8.57 0ZM8.57-38.96L8.57-24.46 11.79-24.46Q13.18-24.46 13.93-25.01 14.67-25.56 14.94-27.21 15.21-28.86 15.21-32.15L15.21-32.15 15.21-32.45Q15.21-35.18 14.95-36.58 14.7-37.99 13.96-38.48 13.23-38.96 11.74-38.96L11.74-38.96 8.57-38.96Z" opacity="1" transform="matrix(1,0,0,1,0,0)" fill="#ffffff" class="wordmark-text-0" data-fill-palette-color="primary" id="text-0"></path></svg></g></svg></g></svg></g></svg></g><g transform="matrix(1,0,0,1,41.44288067176865,0)"><svg viewBox="0 0 15.572875020099062 15.572875020099062" height="15.572875020099062" width="15.572875020099062"><g><svg></svg></g><g id="icon-0"><svg viewBox="0 0 15.572875020099062 15.572875020099062" height="15.572875020099062" width="15.572875020099062"><g><path d="M0 0" data-fill-palette-color="tertiary" fill="#ffffff" stroke="transparent"></path></g><g transform="matrix(1,0,0,1,40.92485086376526,40.92485086376526)"><svg viewBox="0 0 -66.27682670743145 -66.27682670743145" height="-66.27682670743145" width="-66.27682670743145"><g><svg xmlns="http://www.w3.org/2000/svg" xmlns:xlink="http://www.w3.org/1999/xlink" version="1.1" x="0" y="0" viewBox="5 5 90 90" enable-background="new 0 0 100 100" xml:space="preserve" height="-66.27682670743145" width="-66.27682670743145" class="icon-cg-0" data-fill-palette-color="accent" id="cg-0"><path d="M89.1 40.2C87 20.4 70.2 5.1 50.1 5l0 0 0 0 0 0 0 0C28.4 5.1 10.8 22.6 10.8 44.2v0.1 29.4C7.4 74.9 5 78.1 5 81.9c0 4.8 3.9 8.7 8.7 8.7 0.8 0 1.6-0.1 2.4-0.4 2.5 3 6.2 4.8 10.1 4.8s7.5-1.7 10-4.6c0.6 0.1 1.2 0.2 1.8 0.2 4.8 0 8.7-3.9 8.7-8.7 0-4.5-3.4-8.2-7.8-8.6v-29c0-6.2 5-11.2 11.2-11.2l0 0c4.5 0 8.5 2.8 10.2 6.8-4 0.8-7 4.3-7 8.5 0 4.8 3.9 8.7 8.7 8.7 0.8 0 1.6-0.1 2.4-0.4 2.5 3 6.2 4.8 10.1 4.8s7.5-1.7 10-4.6c0.6 0.1 1.2 0.2 1.8 0.2 4.8 0 8.7-3.9 8.7-8.7C95 44.6 92.5 41.4 89.1 40.2zM14.4 44.3c0-19.7 16-35.7 35.7-35.7 18 0 33.2 13.6 35.4 31.2-0.3 0-0.6 0.1-0.9 0.1-1.2-1.4-2.7-2.6-4.4-3.4-3.5-13.6-15.9-23.3-30-23.4h-0.1c-17.1 0-31 13.8-31.2 30.8 0 0.1 0 27.1 0 27.1-1 0.7-2 1.5-2.8 2.5-0.6-0.2-1.2-0.3-1.7-0.3V44.5C14.4 44.4 14.4 44.4 14.4 44.3zM71.3 35.7c-3.4-8.6-11.7-14.3-21.1-14.4-0.1 0-0.1 0-0.2 0-12.7 0-23 10.3-23 23l0 0v24.4c-0.3 0-0.6 0-0.8 0-1.3 0-2.6 0.2-3.8 0.6V44.7c0-0.1 0-0.2 0-0.3 0-15.2 12.3-27.5 27.5-27.6l0 0c11.8 0 22.3 7.7 26 18.6-0.5-0.1-1-0.1-1.5-0.1C73.5 35.3 72.4 35.5 71.3 35.7zM43 81.9c0 2.8-2.3 5.1-5.1 5.1-0.6 0-1.2-0.1-1.8-0.3-0.8-0.3-1.7 0-2.1 0.7-1.8 2.6-4.7 4.1-7.8 4.1-3.3 0-6.2-1.6-8-4.3-0.3-0.5-0.9-0.8-1.5-0.8-0.3 0-0.5 0.1-0.8 0.2-0.7 0.4-1.5 0.5-2.3 0.5-2.8 0-5.1-2.3-5.1-5.1 0-2.8 2.3-5.1 5.1-5.1 0.8 0 1.6 0.2 2.3 0.5 0.8 0.4 1.8 0.1 2.3-0.6 0.9-1.4 2-2.4 3.4-3.2l0 0c1.4-0.7 2.9-1.1 4.5-1.1 3.1 0 6 1.5 7.8 4.1 0.5 0.7 1.4 1 2.1 0.7 0.6-0.2 1.2-0.3 1.8-0.3C40.8 76.8 43 79.1 43 81.9zM50 29.5c-0.1 0-0.1 0-0.2 0-8 0.2-14.4 6.6-14.5 14.6 0 0.1 0 28.2 0 28.2-1.3-1.2-2.9-2.2-4.6-2.8V44.1C30.8 33.5 39.4 25 50 24.9l0 0c8 0 15.1 4.8 18 12.2-1.3 0.8-2.6 1.8-3.6 3-0.1 0-0.1 0-0.2 0C62.4 33.9 56.6 29.5 50 29.5zM86.3 53.5c-0.6 0-1.2-0.1-1.8-0.3-0.8-0.3-1.7 0-2.1 0.7-1.8 2.6-4.7 4.1-7.8 4.1-3.3 0-6.2-1.6-8-4.3-0.3-0.5-0.9-0.8-1.5-0.8-0.3 0-0.5 0.1-0.8 0.2-0.7 0.4-1.5 0.5-2.3 0.5-2.8 0-5.1-2.3-5.1-5.1s2.3-5.1 5.1-5.1c0.8 0 1.6 0.2 2.3 0.5 0.8 0.4 1.8 0.1 2.3-0.6 1.7-2.7 4.7-4.3 8-4.3 3.1 0 6 1.5 7.8 4.1 0.5 0.7 1.4 1 2.1 0.7 0.6-0.2 1.2-0.3 1.8-0.3 2.8 0 5.1 2.3 5.1 5.1C91.4 51.2 89.1 53.5 86.3 53.5z" fill="#ffffff" data-fill-palette-color="accent"></path></svg></g></svg></g></svg></g></svg></g><g></g></svg></g><defs></defs></svg><rect width="64.13620570481466" height="247.2" fill="none" stroke="none" visibility="hidden"></rect></g></svg></g></svg>